<svg id="logo"  viewBox="0 0 200 50" xmlns="http://www.w3.org/2000/svg">
<ellipse cx="25.1257" cy="25.5" rx="24.1206" ry="24.5" fill="white"/>
<path d="M18.6074 0.877464C6.97779 4.38148 0 13.4919 0 25.0051C0 34.4159 4.85412 42.6253 12.8432 46.73C16.9894 48.8324 17.5962 47.3307 13.7533 44.4273C11.0229 42.2248 10.5173 41.2237 10.5173 37.5194C10.5173 34.9164 9.91049 32.814 9.00034 32.0131C7.18005 30.5114 6.97779 26.6069 8.79808 25.2053C9.50598 24.6046 10.2139 22.6023 10.315 20.8003C10.8206 14.1927 18.0007 7.9856 25.1807 7.9856C32.3608 7.9856 39.5408 14.1927 40.0465 20.8003C40.1476 22.6023 40.8555 24.6046 41.5634 25.2053C43.3837 26.6069 43.1814 30.5114 41.3611 32.0131C40.451 32.814 39.8442 34.9164 39.8442 37.5194C39.8442 41.2237 39.3386 42.2248 36.6081 44.4273C32.3608 47.7311 33.5743 48.9325 38.3273 46.0292C45.0017 41.9245 49.9569 33.0143 49.9569 25.1052C49.9569 9.28709 33.372 -3.52758 18.6074 0.877464Z" fill="#D41443"/>
<path d="M19.9221 12.4908C18.1018 13.2917 16.5849 14.2928 16.5849 14.8935C16.5849 15.9948 22.0458 17.9971 25.1807 17.9971C28.3157 17.9971 33.7766 15.9948 33.7766 14.8935C33.7766 13.6921 27.5067 10.989 24.9785 10.989C23.9672 11.0892 21.6413 11.6898 19.9221 12.4908Z" fill="#D41443"/>
<path d="M72.0026 17.6968C70.4857 18.0972 70.1823 19.3987 70.1823 26.607V35.0166H73.7217H77.3623L77.0589 26.3066C76.7556 17.1962 76.3511 16.4954 72.0026 17.6968Z" fill="#D41443"/>
<path d="M83.8345 18.1974C80.4973 19.9995 79.2837 22.202 79.2837 26.5069C79.2837 32.4137 82.5198 35.2169 88.4863 34.8164C92.5314 34.5161 92.9359 34.2157 93.2393 31.7129C93.5427 29.21 93.3404 29.0098 90.2055 29.21C86.9694 29.5104 86.8683 29.3101 86.8683 26.0063C86.8683 22.7026 87.0705 22.5023 90.0032 22.8027C92.4303 23.0029 93.3404 22.6025 93.7449 21.1007C93.9472 20.0996 93.7449 18.698 93.1382 18.0973C91.7224 16.6957 86.4638 16.6957 83.8345 18.1974Z" fill="#D41443"/>
<path d="M95.8686 18.2973C95.5653 19.0982 95.4641 23.0027 95.6664 27.1074L95.9698 34.5159H102.543C108.611 34.5159 109.116 34.3156 109.42 32.2132C109.723 30.3111 109.319 30.0107 106.184 30.0107C104.161 30.0107 102.543 29.5101 102.543 29.0096C102.543 28.4089 103.959 28.0084 105.577 28.0084C107.903 28.0084 108.611 27.608 108.611 26.0061C108.611 24.4043 107.903 24.0038 105.577 24.0038C103.959 24.0038 102.543 23.5033 102.543 23.0027C102.543 22.402 103.858 22.0015 105.476 22.0015C108.307 22.0015 110.229 19.799 109.015 17.8968C108.105 16.3951 96.4754 16.7956 95.8686 18.2973Z" fill="#D41443"/>
<path d="M116.195 17.9971C112.858 19.2986 111.544 21.6012 111.442 25.806C111.341 33.0143 114.274 35.5172 121.859 34.8164C124.791 34.6161 125.297 34.1156 125.297 32.0132C125.297 29.8106 124.892 29.5103 122.061 29.8106C119.634 30.0109 118.724 29.7105 118.218 28.1087C117.308 25.0051 119.229 22.5023 122.465 22.5023C124.387 22.5023 125.398 21.9016 125.6 20.6001C126.308 17.3964 121.151 15.8947 116.195 17.9971Z" fill="#D41443"/>
<path d="M128.634 17.5966C128.128 17.9971 127.825 22.1018 127.825 26.7071V35.1167L131.061 34.8164C133.589 34.6161 134.499 33.9153 135.005 32.0131L135.612 29.5103L136.421 32.2134C137.027 34.516 137.735 35.0166 140.365 35.0166C144.713 35.0166 145.219 34.3158 143.398 30.8118C142.286 28.6092 142.084 27.508 142.893 26.7071C144.207 25.4056 144.309 21.0005 143.095 19.0984C142.084 17.4965 129.948 16.195 128.634 17.5966ZM136.926 23.0028C136.926 24.1041 136.522 25.0051 135.915 25.0051C135.409 25.0051 134.904 24.1041 134.904 23.0028C134.904 21.9016 135.409 21.0005 135.915 21.0005C136.522 21.0005 136.926 21.9016 136.926 23.0028Z" fill="#D41443"/>
<path d="M146.736 17.6968C146.331 17.9971 146.028 22.1018 146.028 26.7071V35.0166H152.601C158.972 35.0166 159.174 34.9165 159.174 32.5137C159.174 30.4113 158.669 30.0109 156.141 30.0109C154.523 30.0109 153.107 29.5103 153.107 29.0097C153.107 28.409 154.219 28.0086 155.635 28.0086C157.455 28.0086 158.163 27.508 158.163 26.0063C158.163 24.5046 157.455 24.004 155.635 24.004C154.219 24.004 153.107 23.5034 153.107 23.0028C153.107 22.4022 154.523 22.0017 156.141 22.0017C158.669 22.0017 159.174 21.6012 159.174 19.4988C159.174 17.0961 158.871 16.996 153.309 16.996C150.073 16.996 147.039 17.2963 146.736 17.6968Z" fill="#D41443"/>
<path d="M167.164 17.5969C165.343 18.0974 160.691 31.4127 161.602 33.6152C162.411 35.6175 166.961 35.4173 168.175 33.3149C169.085 31.6129 169.186 31.6129 171.006 33.3149C173.332 35.3172 178.389 35.6175 178.389 33.7153C178.389 33.1146 177.378 29.11 176.063 25.0053C174.04 18.3978 173.434 17.4967 171.31 17.2965C169.894 17.2965 168.074 17.3966 167.164 17.5969ZM169.995 26.7073C169.692 27.7084 169.49 27.1078 169.49 25.5059C169.49 23.804 169.692 23.1032 169.995 23.7039C170.197 24.4047 170.197 25.8063 169.995 26.7073Z" fill="#D41443"/>
<path d="M181.726 17.6968C180.816 17.9971 180.411 20.8003 180.411 26.607V35.0166H183.344C185.872 35.0166 186.378 34.516 186.782 32.2134C187.187 29.6104 187.187 29.6104 187.996 31.7128C188.4 33.0143 189.411 34.0155 190.119 34.0155C190.928 34.0155 192.041 33.0143 192.546 31.7128C193.355 29.6104 193.456 29.6104 193.456 32.3135C193.558 34.8164 193.861 35.1167 196.693 34.8164L199.828 34.516L199.929 26.2065C200.131 18.4977 200.03 17.897 197.906 17.3964C194.67 16.5955 191.94 18.4977 191.029 22.2019L190.322 25.5057L189.209 22.0017C187.793 17.2963 185.67 16.0949 181.726 17.6968Z" fill="#D41443"/>
<path d="M14.1577 18.6978C13.8543 19.0983 13.5509 20.3998 13.5509 21.7013C13.5509 24.0039 13.652 24.0039 25.1806 24.0039C36.7091 24.0039 36.8102 24.0039 36.8102 21.7013C36.8102 18.2974 35.9001 17.8969 32.664 19.4987C29.0234 21.4009 21.3377 21.4009 17.6971 19.4987C16.0791 18.6978 14.5622 18.3975 14.1577 18.6978Z" fill="#D41443"/>
<path d="M11.225 27.608C9.60695 29.31 12.3374 30.0108 20.2253 30.0108H28.72V33.5148C28.72 35.417 29.2257 37.0188 29.7313 37.0188C30.3381 37.0188 30.7426 35.5171 30.7426 33.6149C30.7426 30.3111 30.9448 30.1109 34.7877 29.8105C37.0125 29.6103 38.8328 29.0096 38.8328 28.5091C38.8328 27.4078 12.3374 26.5068 11.225 27.608Z" fill="#D41443"/>
<path d="M13.5509 36.4181C13.5509 41.9244 15.4723 43.0256 25.1806 43.0256C34.8888 43.0256 36.8102 41.9244 36.8102 36.4181C36.8102 34.0153 36.3046 33.0142 35.2933 33.0142C34.3832 33.0142 33.7764 33.9152 33.7764 35.4169C33.7764 41.0233 26.0907 41.5239 24.9783 36.0176C24.4727 33.1143 24.1693 33.0142 19.0118 33.0142H13.5509V36.4181Z" fill="#D41443"/>
<path d="M19.821 47.7312C20.4278 50.9349 30.7428 50.6345 30.7428 47.531C30.7428 46.4297 29.4282 46.0292 25.0797 46.0292C20.3267 46.0292 19.5177 46.3296 19.821 47.7312Z" fill="#D41443"/>
</svg>
